<svg width="40" height="40" viewBox="0 0 40 40" fill="none" xmlns="http://www.w3.org/2000/svg">
<path d="M37.5 0H1.5625C0.698242 0 0 0.698242 0 1.5625V37.5C0 38.3643 0.698242 39.0625 1.5625 39.0625H37.5C38.3643 39.0625 39.0625 38.3643 39.0625 37.5V1.5625C39.0625 0.698242 38.3643 0 37.5 0ZM19.585 19.8291L10.21 27.6904C9.95605 27.9053 9.57031 27.7246 9.57031 27.3926V24.3311C9.57031 24.2187 9.62402 24.1064 9.71191 24.0332L15.0732 19.5312L9.71191 15.0293C9.66703 14.9938 9.63092 14.9485 9.60636 14.8969C9.5818 14.8452 9.56947 14.7886 9.57031 14.7314V11.6699C9.57031 11.3379 9.95605 11.1572 10.21 11.3721L19.585 19.2285C19.7754 19.3848 19.7754 19.6729 19.585 19.8291ZM29.4922 27.3926C29.4922 27.6074 29.3262 27.7832 29.126 27.7832H20.0928C19.8926 27.7832 19.7266 27.6074 19.7266 27.3926V25.0488C19.7266 24.834 19.8926 24.6582 20.0928 24.6582H29.126C29.3262 24.6582 29.4922 24.834 29.4922 25.0488V27.3926Z" fill="#111111"/>
</svg>
